<svg xmlns="http://www.w3.org/2000/svg" viewBox="270 258 660 684" font-family="Helvetica, Arial, sans-serif">
  <title>REQ4ARC Curriculum – Navigation</title>
  <polygon points="540.0,288.0 660.0,288.0 720.0,392.0 660.0,496.0 540.0,496.0 480.0,392.0" fill="#FFFFFF" stroke="#263E4D" stroke-width="2.5" stroke-linejoin="round"/>
  <polygon points="720.0,392.0 840.0,392.0 900.0,496.0 840.0,600.0 720.0,600.0 660.0,496.0" fill="#FFFFFF" stroke="#263E4D" stroke-width="2.5" stroke-linejoin="round"/>
  <polygon points="720.0,600.0 840.0,600.0 900.0,704.0 840.0,808.0 720.0,808.0 660.0,704.0" fill="#FFFFFF" stroke="#263E4D" stroke-width="2.5" stroke-linejoin="round"/>
  <polygon points="540.0,704.0 660.0,704.0 720.0,808.0 660.0,912.0 540.0,912.0 480.0,808.0" fill="#FFFFFF" stroke="#263E4D" stroke-width="2.5" stroke-linejoin="round"/>
  <polygon points="360.0,600.0 480.0,600.0 540.0,704.0 480.0,808.0 360.0,808.0 300.0,704.0" fill="#FFFFFF" stroke="#263E4D" stroke-width="2.5" stroke-linejoin="round"/>
  <polygon points="360.0,392.0 480.0,392.0 540.0,496.0 480.0,600.0 360.0,600.0 300.0,496.0" fill="#FFFFFF" stroke="#263E4D" stroke-width="2.5" stroke-linejoin="round"/>
  <polygon points="540.0,496.0 660.0,496.0 720.0,600.0 660.0,704.0 540.0,704.0 480.0,600.0" fill="#F39200" stroke="#263E4D" stroke-width="2.5" stroke-linejoin="round"/>
  <polygon points="701.2,450.5 677.6,449.6 688.6,430.5" fill="#F39200"/>
  <polygon points="780.0,613.0 769.0,592.0 791.0,592.0" fill="#F39200"/>
  <polygon points="678.7,762.5 691.4,742.4 702.4,761.5" fill="#F39200"/>
  <polygon points="498.8,749.5 522.4,750.4 511.4,769.5" fill="#F39200"/>
  <polygon points="420.0,587.0 431.0,608.0 409.0,608.0" fill="#F39200"/>
  <text x="600.0" y="378.5" text-anchor="middle" fill="#263E4D" font-size="23">
    <tspan x="600.0" dy="0" dominant-baseline="central">Cooperation</tspan>
    <tspan x="600.0" dy="27" dominant-baseline="central">between Roles</tspan>
  </text>
  <text x="780.0" y="496.0" text-anchor="middle" fill="#263E4D" font-size="23">
    <tspan x="780.0" dy="0" dominant-baseline="central">Clean Start</tspan>
  </text>
  <text x="780.0" y="677.0" text-anchor="middle" fill="#263E4D" font-size="23">
    <tspan x="780.0" dy="0" dominant-baseline="central">Functional</tspan>
    <tspan x="780.0" dy="27" dominant-baseline="central">Requirements</tspan>
    <tspan x="780.0" dy="27" dominant-baseline="central">and BDD</tspan>
  </text>
  <text x="600.0" y="794.5" text-anchor="middle" fill="#263E4D" font-size="23">
    <tspan x="600.0" dy="0" dominant-baseline="central">Quality Requirements</tspan>
    <tspan x="600.0" dy="27" dominant-baseline="central">and Constraints</tspan>
  </text>
  <text x="420.0" y="690.5" text-anchor="middle" fill="#263E4D" font-size="23">
    <tspan x="420.0" dy="0" dominant-baseline="central">AI in RE,</tspan>
    <tspan x="420.0" dy="27" dominant-baseline="central">Tools for RE</tspan>
  </text>
  <text x="420.0" y="482.5" text-anchor="middle" fill="#263E4D" font-size="23">
    <tspan x="420.0" dy="0" dominant-baseline="central">Prioritization</tspan>
    <tspan x="420.0" dy="27" dominant-baseline="central">and Estimation</tspan>
  </text>
  <text x="600.0" y="586.5" text-anchor="middle" fill="#FFFFFF" font-size="34" font-weight="bold">
    <tspan x="600.0" dy="0" dominant-baseline="central">REQ4ARC</tspan>
    <tspan x="600.0" dy="27" dominant-baseline="central">Curriculum</tspan>
  </text>
</svg>
